<?xml version="1.0" standalone="no"?><!DOCTYPE svg PUBLIC "-//W3C//DTD SVG 1.1//EN" "http://www.w3.org/Graphics/SVG/1.1/DTD/svg11.dtd"><svg t="1742475338329" class="icon" viewBox="0 0 1024 1024" version="1.1" xmlns="http://www.w3.org/2000/svg" p-id="3708" xmlns:xlink="http://www.w3.org/1999/xlink" width="200" height="200"><path d="M512 947.2c-76.8 0-157.866667-21.333333-226.133333-59.733333l-12.8-8.533334c-55.466667-29.866667-93.866667-85.333333-102.4-149.333333L98.133333 187.733333c-4.266667-21.333333 4.266667-38.4 21.333334-51.2 34.133333-25.6 145.066667-85.333333 392.533333-85.333333 247.466667 0 358.4 59.733333 392.533333 85.333333 17.066667 12.8 25.6 29.866667 21.333334 51.2L853.333333 729.6c-8.533333 64-46.933333 119.466667-102.4 149.333333l-12.8 8.533334c-68.266667 42.666667-149.333333 59.733333-226.133333 59.733333zM162.133333 183.466667l72.533334 537.6c4.266667 42.666667 29.866667 81.066667 68.266666 102.4l12.8 8.533333c119.466667 68.266667 268.8 68.266667 392.533334 0l12.8-8.533333c38.4-21.333333 64-59.733333 68.266666-102.4l72.533334-537.6c-29.866667-21.333333-128-68.266667-349.866667-68.266667-221.866667 4.266667-320 51.2-349.866667 68.266667z m0-4.266667z" p-id="3709"></path><path d="M512 332.8c-153.6 0-341.333333-25.6-405.333333-93.866667l46.933333-42.666666c42.666667 42.666667 192 76.8 362.666667 76.8s320-29.866667 362.666666-76.8l46.933334 42.666666C853.333333 307.2 665.6 332.8 512 332.8z" p-id="3710"></path></svg>