<?xml version="1.0" standalone="no"?><!DOCTYPE svg PUBLIC "-//W3C//DTD SVG 1.1//EN" "http://www.w3.org/Graphics/SVG/1.1/DTD/svg11.dtd"><svg t="1742467279750" class="icon" viewBox="0 0 1024 1024" version="1.1" xmlns="http://www.w3.org/2000/svg" p-id="6033" xmlns:xlink="http://www.w3.org/1999/xlink" width="200" height="200"><path d="M927.4 442.5c-3.4-4.6-8.8-7.3-14.5-7.3H541c1.3-2.5 2.1-5.3 2.1-8.4v-174c61.5 14.4 284.8 68.7 363.6-152.4 0 0-221.2-136.1-372.8 118.3C382.3-35.7 161.1 100.4 161.1 100.4c44 153 272.7 168.3 344.7 156.3v170.2c0 3.1 0.8 5.9 2.2 8.4H111.2c-6 0-11.6 2.9-15 7.9-3.4 4.9-4.1 11.1-2.1 16.7L142 598.5c2.6 7.1 9.4 11.8 17 11.8h32.4l52.9 334.3c1.4 8.8 9.1 15.3 18 15.3h510.3c9.1 0 16.7-6.6 18-15.6l47.6-334.1h37.4c8 0 15.2-5.3 17.5-13.1l37.1-138.7c1.7-5.5 0.6-11.4-2.8-15.9z m-170.5 481H277.8c-4.1-26.3-47.2-298.1-52.5-331.6h578.9c-4.6 31.9-43.5 304.8-47.3 331.6z m105.2-349.6h-18.6c-0.3 0-0.5-0.1-0.7-0.1h-16.2c-0.5-0.1-0.9-0.3-1.4-0.4-2.4-0.4-4.8-0.2-7 0.4h-607c-2.3-0.6-4.8-0.7-7.3-0.4-0.5 0.1-0.8 0.2-1.3 0.4h-2.2c-0.3 0-0.5 0.1-0.7 0.1h-28.2c-5.7-15.3-23.5-74-34.1-102.3h751.1c-7.8 27.2-21.6 85.5-26.4 102.3z" p-id="6034" fill="#8a8a8a"></path></svg>